<?xml version="1.0" encoding="utf-8"?>
<!-- Generator: Adobe Illustrator 24.2.1, SVG Export Plug-In . SVG Version: 6.00 Build 0)  -->
<svg version="1.1" id="Layer_1" xmlns="http://www.w3.org/2000/svg" x="0px"
     y="0px"
     viewBox="0 0 179.6 205.2" style="enable-background:new 0 0 179.6 205.2;" xml:space="preserve">
<style type="text/css">
	.st0{fill:#FFFFFF;}
	.st1{fill:none;stroke:#FFFFFF;stroke-width:4;stroke-miterlimit:10;}
</style>
    <path class="st0" d="M108.1,85.5c-5.7,0-10.2,4.9-10.2,11s4.6,11,10.2,11c5.7,0,10.2-4.9,10.2-11S113.7,85.5,108.1,85.5z M71.6,85.5
	c-5.7,0-10.2,4.9-10.2,11s4.6,11,10.2,11c5.7,0,10.2-4.9,10.2-11C81.9,90.4,77.3,85.5,71.6,85.5z"/>
    <path id="XMLID_1_" class="st1" d="M156.7,2.3h-134c-11.3,0-20.5,9.2-20.5,20.5v134c0,11.3,9.2,20.5,20.5,20.5h113.4l-5.3-18.3
	l12.8,11.8l12.1,11.1l21.6,18.7V22.8C177.2,11.5,168,2.3,156.7,2.3z M118.1,131.8c0,0-3.6-4.3-6.6-8c13.1-3.7,18.1-11.8,18.1-11.8
	c-4.1,2.7-8,4.6-11.5,5.9c-5,2.1-9.8,3.4-14.5,4.3c-9.6,1.8-18.4,1.3-25.9-0.1c-5.7-1.1-10.6-2.6-14.7-4.3c-2.3-0.9-4.8-2-7.3-3.4
	c-0.3-0.2-0.6-0.3-0.9-0.5c-0.2-0.1-0.3-0.2-0.4-0.2c-1.8-1-2.8-1.7-2.8-1.7s4.8,7.9,17.5,11.7c-3,3.8-6.7,8.2-6.7,8.2
	c-22.1-0.7-30.5-15.1-30.5-15.1C31.9,84.9,46.3,59,46.3,59c14.4-10.7,28-10.4,28-10.4l1,1.2c-18,5.1-21.5,12.3-21.5,12.3
	s-1.8,2,2.6-0.7c10.7-4.7,17.8-7.3,21.3-7.7c0.6-0.1,1.1-0.2,1.7-0.2c6.1-0.8,13-1,20.2-0.2c9.4,1.1,20,4,30.3,9.5c0,0,0.1,0,0-0.1
	c-1.4-1.2-9.8-8-25.1-12.6l1.4-1.6c0,0,13.7-0.3,28,10.4c0,0,14.4,25.9,14.4,57.8C148.6,116.7,140.2,131.1,118.1,131.8L118.1,131.8z
	"/>
</svg>
