<?xml version="1.0" encoding="utf-8"?>
<!-- Generator: Adobe Illustrator 24.2.1, SVG Export Plug-In . SVG Version: 6.00 Build 0)  -->
<svg version="1.1" id="Layer_1" xmlns="http://www.w3.org/2000/svg" x="0px"
     y="0px"
     viewBox="0 0 175.1 198.3" style="enable-background:new 0 0 175.1 198.3;" xml:space="preserve">
<style type="text/css">
	.st0{fill:#FFFFFF;}
</style>
    <path class="st0" d="M105.9,83.2c-5.7,0-10.2,4.9-10.2,11s4.6,11,10.2,11c5.7,0,10.2-4.9,10.2-11S111.5,83.2,105.9,83.2z M69.4,83.2
	c-5.7,0-10.2,4.9-10.2,11s4.6,11,10.2,11c5.7,0,10.2-4.9,10.2-11C79.7,88.1,75.1,83.2,69.4,83.2z"/>
    <path class="st0" d="M154.5,0h-134C9.2,0,0,9.2,0,20.5v134C0,165.8,9.2,175,20.5,175h113.4l-5.3-18.3l12.8,11.8l12.1,11.1l21.6,18.7
	V20.5C175,9.2,165.8,0,154.5,0z M115.9,129.5c0,0-3.6-4.3-6.6-8c13.1-3.7,18.1-11.8,18.1-11.8c-4.1,2.7-8,4.6-11.5,5.9
	c-5,2.1-9.8,3.4-14.5,4.3c-9.6,1.8-18.4,1.3-25.9-0.1c-5.7-1.1-10.6-2.6-14.7-4.3c-2.3-0.9-4.8-2-7.3-3.4c-0.3-0.2-0.6-0.3-0.9-0.5
	c-0.2-0.1-0.3-0.2-0.4-0.2c-1.8-1-2.8-1.7-2.8-1.7s4.8,7.9,17.5,11.7c-3,3.8-6.7,8.2-6.7,8.2c-22.1-0.7-30.5-15.1-30.5-15.1
	c0-31.9,14.4-57.8,14.4-57.8c14.4-10.7,28-10.4,28-10.4l1,1.2c-18,5.1-26.2,13-26.2,13s2.2-1.2,5.9-2.8C63.5,53,72,51.8,75.5,51.4
	c0.6-0.1,1.1-0.2,1.7-0.2c6.1-0.8,13-1,20.2-0.2c9.5,1.1,19.7,3.9,30.1,9.5c0,0-7.9-7.5-24.9-12.6l1.4-1.6c0,0,13.7-0.3,28,10.4
	c0,0,14.4,25.9,14.4,57.8C146.4,114.4,138,128.8,115.9,129.5L115.9,129.5z"/>
</svg>
