<?xml version="1.0" encoding="utf-8"?>
<!-- Generator: Adobe Illustrator 24.2.1, SVG Export Plug-In . SVG Version: 6.00 Build 0)  -->
<svg version="1.1" id="Layer_1" xmlns="http://www.w3.org/2000/svg" xmlns:xlink="http://www.w3.org/1999/xlink" x="0px" y="0px"
	 viewBox="0 0 48 48" style="enable-background:new 0 0 48 48;" xml:space="preserve">
<style type="text/css">
	.st0{fill:#FFFFFF;}
	.st1{fill:#7289DA;}
	.st2{fill:#FCFCFC;}
</style>
<path class="st0" d="M25.3,12.9l-3.1,0.5L24,24.6l-5.8,8.2l2.5,1.7l6.4-9L25.3,12.9z M23.8,44.1c-2.7,0-5.3-0.5-7.8-1.6
	c-2.4-1-4.6-2.5-6.4-4.3s-3.3-3.9-4.3-6.4s-1.6-5-1.6-7.8s0.5-5.3,1.6-7.8s2.5-4.6,4.3-6.4s3.9-3.3,6.4-4.3s5-1.6,7.8-1.6
	s5.3,0.5,7.8,1.6S36.2,8,38,9.8s3.3,3.9,4.3,6.4c1.1,2.4,1.6,5,1.6,7.8s-0.5,5.3-1.6,7.8c-1,2.4-2.5,4.6-4.3,6.4s-3.9,3.3-6.4,4.3
	C29.1,43.6,26.5,44.1,23.8,44.1z M23.8,41.1c4.7,0,8.7-1.7,12-5s5-7.3,5-12s-1.7-8.7-5-12s-7.3-5-12-5s-8.7,1.7-12,5s-5,7.3-5,12
	s1.7,8.7,5,12S19.1,41.1,23.8,41.1z"/>
<text transform="matrix(1 0 0 1 306 396)" style="font-family:'ArialMT'; font-size:12px;">clock</text>
<path class="st1" d="M43.9,26.4H30.5c-1.1,0-2,0.9-2,2v13.4c0,1.1,0.9,2,2,2h11.3L41.3,42l1.3,1.2l1.2,1.1l2.2,1.9V28.4
	C46,27.3,45.1,26.4,43.9,26.4z"/>
<path class="st2" d="M40.1,39.3c0,0-0.4-0.4-0.7-0.8c1.3-0.4,1.8-1.2,1.8-1.2c-0.4,0.3-0.8,0.5-1.2,0.6c-0.5,0.2-1,0.3-1.4,0.4
	c-1,0.2-1.8,0.1-2.6,0c-0.6-0.1-1.1-0.3-1.5-0.4c-0.2-0.1-0.5-0.2-0.7-0.3c0,0-0.1,0-0.1,0c0,0,0,0,0,0c-0.2-0.1-0.3-0.2-0.3-0.2
	s0.5,0.8,1.8,1.2c-0.3,0.4-0.7,0.8-0.7,0.8c-2.2-0.1-3-1.5-3-1.5c0-3.2,1.4-5.8,1.4-5.8c1.4-1.1,2.8-1,2.8-1l0.1,0.1
	c-1.8,0.5-2.6,1.3-2.6,1.3s0.2-0.1,0.6-0.3c1.1-0.5,1.9-0.6,2.3-0.6c0.1,0,0.1,0,0.2,0c0.6-0.1,1.3-0.1,2,0c1,0.1,2,0.4,3,1
	c0,0-0.8-0.8-2.5-1.3l0.1-0.2c0,0,1.4,0,2.8,1c0,0,1.4,2.6,1.4,5.8C43.1,37.8,42.3,39.2,40.1,39.3L40.1,39.3z"/>
<path class="st1" d="M39.1,34.7c-0.6,0-1,0.5-1,1.1s0.5,1.1,1,1.1c0.6,0,1-0.5,1-1.1S39.6,34.7,39.1,34.7z M35.4,34.7
	c-0.6,0-1,0.5-1,1.1s0.5,1.1,1,1.1c0.6,0,1-0.5,1-1.1C36.5,35.2,36,34.7,35.4,34.7z"/>
</svg>
